<svg xmlns="http://www.w3.org/2000/svg" version="1.1" xmlns:xlink="http://www.w3.org/1999/xlink" xmlns:svgjs="http://svgjs.dev/svgjs" viewBox="0 0 11.56264335022097 6.544396468726342"><g transform="matrix(1,0,0,1,0.7190249221807976,3.741759046545544)"><rect width="11.56264335022097" height="6.544396468726342" x="-0.7190249221807978" y="-3.7417590465455444" fill="#ffffff"></rect><g><path d=" M 0.0555 0.8025 Q 0.0585 0.867 0.08925 0.9195000000000001 Q 0.12 0.9720000000000001 0.17325000000000002 1.00875 Q 0.2265 1.0455 0.2985 1.06575 Q 0.3705 1.086 0.456 1.086 Q 0.543 1.086 0.61275 1.0650000000000002 Q 0.6825 1.044 0.732 1.0050000000000001 Q 0.7815 0.9660000000000001 0.8085 0.9105000000000001 Q 0.8355 0.8550000000000001 0.8355 0.7875000000000001 Q 0.8355 0.6945000000000001 0.789 0.6352500000000001 Q 0.7425 0.5760000000000001 0.67275 0.53625 Q 0.603 0.49650000000000005 0.52125 0.46950000000000003 Q 0.4395 0.4425 0.36975 0.4125000000000001 Q 0.3 0.38250000000000006 0.2535 0.3435 Q 0.20700000000000002 0.3045 0.20700000000000002 0.24 Q 0.20700000000000002 0.20400000000000007 0.22275 0.1725 Q 0.23850000000000002 0.14100000000000001 0.26925 0.11775000000000002 Q 0.3 0.09450000000000003 0.34500000000000003 0.08025000000000004 Q 0.39 0.06600000000000006 0.4485 0.06600000000000006 Q 0.546 0.06600000000000006 0.61425 0.10725000000000007 Q 0.6825 0.14850000000000008 0.6945 0.237 L 0.7965 0.237 Q 0.7875 0.1815 0.756 0.1372500000000001 Q 0.7245 0.09300000000000008 0.6765 0.06225000000000014 Q 0.6285000000000001 0.031500000000000083 0.56775 0.01574999999999993 Q 0.507 0 0.441 0 Q 0.372 0 0.30975 0.018000000000000016 Q 0.2475 0.03600000000000003 0.20025 0.07050000000000001 Q 0.153 0.1050000000000001 0.12525 0.15750000000000008 Q 0.0975 0.21000000000000008 0.0975 0.2775000000000001 Q 0.0975 0.366 0.14250000000000002 0.42000000000000004 Q 0.1875 0.4740000000000001 0.25575000000000003 0.51 Q 0.324 0.546 0.4035 0.5715000000000001 Q 0.483 0.597 0.55125 0.6292500000000001 Q 0.6195 0.6615 0.6645 0.7080000000000001 Q 0.7095 0.7545000000000001 0.7095 0.8325 Q 0.7095 0.93 0.63825 0.9750000000000001 Q 0.5670000000000001 1.02 0.4485 1.02 Q 0.354 1.02 0.297 0.9952500000000001 Q 0.24 0.9705 0.21 0.936 Q 0.18 0.9015000000000001 0.1695 0.86475 Q 0.159 0.8280000000000001 0.1575 0.8025 L 0.0555 0.8025 Z M 1.132408447265625 0.018000000000000016 L 1.132408447265625 1.068 L 1.810408447265625 1.068 L 1.810408447265625 0.9855 L 1.2689084472656251 0.9855 L 1.2689084472656251 0.546 L 1.733908447265625 0.546 L 1.733908447265625 0.4770000000000001 L 1.2689084472656251 0.4770000000000001 L 1.2689084472656251 0.10050000000000003 L 1.810408447265625 0.10050000000000003 L 1.810408447265625 0.018000000000000016 L 1.132408447265625 0.018000000000000016 Z M 2.93389306640625 0.8745 Q 2.78089306640625 1.0185 2.57089306640625 1.0185 Q 2.45389306640625 1.0185 2.36389306640625 0.9780000000000001 Q 2.27389306640625 0.9375 2.21389306640625 0.8700000000000001 Q 2.15389306640625 0.8025 2.12314306640625 0.7140000000000001 Q 2.0923930664062502 0.6255000000000001 2.0923930664062502 0.5295000000000001 Q 2.0923930664062502 0.4275000000000001 2.12464306640625 0.34275 Q 2.15689306640625 0.258 2.21539306640625 0.1965 Q 2.27389306640625 0.135 2.35414306640625 0.10050000000000003 Q 2.4343930664062503 0.06600000000000006 2.52889306640625 0.06600000000000006 Q 2.59339306640625 0.06600000000000006 2.64664306640625 0.08100000000000007 Q 2.69989306640625 0.09600000000000009 2.74114306640625 0.12 Q 2.78239306640625 0.14400000000000002 2.8086430664062503 0.17475000000000007 Q 2.83489306640625 0.20550000000000002 2.84539306640625 0.237 L 2.95639306640625 0.237 Q 2.93389306640625 0.18600000000000005 2.89864306640625 0.14250000000000007 Q 2.86339306640625 0.09900000000000009 2.81089306640625 0.06750000000000012 Q 2.75839306640625 0.03600000000000003 2.68789306640625 0.018000000000000016 Q 2.61739306640625 0 2.5273930664062503 0 Q 2.3968930664062498 0 2.28964306640625 0.03750000000000009 Q 2.18239306640625 0.07500000000000007 2.10589306640625 0.14475000000000005 Q 2.02939306640625 0.21450000000000002 1.98739306640625 0.3127500000000001 Q 1.94539306640625 0.41100000000000003 1.94539306640625 0.5325000000000001 Q 1.94539306640625 0.6375000000000001 1.97914306640625 0.7372500000000001 Q 2.01289306640625 0.8370000000000001 2.08339306640625 0.91425 Q 2.15389306640625 0.9915 2.26339306640625 1.03875 Q 2.37289306640625 1.086 2.52439306640625 1.086 Q 2.6203930664062502 1.086 2.69614306640625 1.068 Q 2.7718930664062498 1.05 2.82814306640625 1.0237500000000002 Q 2.88439306640625 0.9975 2.92189306640625 0.9675 Q 2.9593930664062498 0.9375 2.97889306640625 0.915 L 2.93389306640625 0.8745 Z M 3.143851318359375 0.018000000000000016 L 3.143851318359375 0.663 Q 3.143851318359375 0.7245 3.155851318359375 0.7987500000000001 Q 3.167851318359375 0.873 3.212851318359375 0.9367500000000001 Q 3.257851318359375 1.0005000000000002 3.3463513183593747 1.04325 Q 3.434851318359375 1.086 3.587851318359375 1.086 Q 3.683851318359375 1.086 3.758101318359375 1.056 Q 3.832351318359375 1.026 3.882601318359375 0.9735 Q 3.9328513183593747 0.921 3.958351318359375 0.8512500000000001 Q 3.983851318359375 0.7815000000000001 3.983851318359375 0.7020000000000001 L 3.983851318359375 0.018000000000000016 L 3.917851318359375 0.018000000000000016 L 3.917851318359375 0.6525000000000001 Q 3.917851318359375 0.6855 3.916351318359375 0.7192500000000001 Q 3.914851318359375 0.7530000000000001 3.907351318359375 0.7867500000000001 Q 3.899851318359375 0.8205 3.884101318359375 0.8535 Q 3.868351318359375 0.8865000000000001 3.8383513183593747 0.9195000000000001 Q 3.784351318359375 0.9780000000000001 3.716851318359375 0.9990000000000001 Q 3.649351318359375 1.02 3.575851318359375 1.02 Q 3.512851318359375 1.02 3.4641013183593747 1.0005000000000002 Q 3.415351318359375 0.9810000000000001 3.371851318359375 0.9420000000000001 Q 3.337351318359375 0.912 3.319351318359375 0.8820000000000001 Q 3.301351318359375 0.8520000000000001 3.292351318359375 0.8227500000000001 Q 3.283351318359375 0.7935000000000001 3.281851318359375 0.7635000000000001 Q 3.280351318359375 0.7335 3.280351318359375 0.7035 L 3.280351318359375 0.018000000000000016 L 3.143851318359375 0.018000000000000016 Z M 4.298807373046875 0.018000000000000016 L 4.298807373046875 1.068 L 4.435307373046875 1.068 L 4.435307373046875 0.6045 L 4.501307373046876 0.6045 Q 4.543307373046876 0.6045 4.571057373046876 0.6120000000000001 Q 4.598807373046876 0.6195 4.621307373046876 0.6375000000000001 Q 4.643807373046876 0.6555 4.663307373046876 0.684 Q 4.6828073730468756 0.7125000000000001 4.709807373046876 0.7545000000000001 L 4.828307373046876 0.93 Q 4.850807373046876 0.9645 4.872557373046876 0.9930000000000001 Q 4.894307373046876 1.0215 4.919807373046876 1.04175 Q 4.945307373046876 1.062 4.977557373046875 1.074 Q 5.0098073730468755 1.086 5.054807373046875 1.086 Q 5.087807373046876 1.086 5.108807373046876 1.083 Q 5.129807373046876 1.08 5.1508073730468755 1.068 L 5.1508073730468755 1.0125 Q 5.143307373046875 1.014 5.135807373046876 1.01475 Q 5.128307373046876 1.0155 5.120807373046875 1.0155 Q 5.089307373046876 1.0155 5.065307373046876 1.0065 Q 5.041307373046876 0.9975 5.020307373046876 0.9802500000000001 Q 4.999307373046875 0.9630000000000001 4.979807373046875 0.93825 Q 4.960307373046875 0.9135000000000001 4.9393073730468755 0.8820000000000001 Q 4.876307373046876 0.7905 4.841807373046875 0.7357500000000001 Q 4.807307373046876 0.681 4.787057373046876 0.651 Q 4.766807373046875 0.621 4.754057373046876 0.6075 Q 4.741307373046876 0.5940000000000001 4.723307373046875 0.5850000000000001 L 4.708307373046876 0.5775000000000001 L 4.708307373046876 0.5715000000000001 Q 4.780307373046876 0.5670000000000001 4.832057373046876 0.54 Q 4.883807373046875 0.513 4.9168073730468755 0.47250000000000003 Q 4.949807373046876 0.43200000000000005 4.964807373046876 0.38475000000000004 Q 4.979807373046875 0.3375 4.979807373046875 0.2925000000000001 Q 4.979807373046875 0.252 4.9640573730468756 0.20400000000000007 Q 4.948307373046876 0.15600000000000003 4.910057373046875 0.11475000000000002 Q 4.871807373046876 0.07350000000000001 4.805807373046876 0.04574999999999996 Q 4.739807373046876 0.018000000000000016 4.639307373046876 0.018000000000000016 L 4.298807373046875 0.018000000000000016 Z M 4.435307373046875 0.08400000000000007 L 4.5868073730468755 0.08400000000000007 Q 4.643807373046876 0.08400000000000007 4.689557373046876 0.10050000000000003 Q 4.735307373046876 0.11699999999999999 4.768307373046875 0.14625 Q 4.801307373046876 0.1755 4.818557373046875 0.21600000000000008 Q 4.835807373046875 0.25650000000000006 4.835807373046875 0.3045 Q 4.835807373046875 0.3450000000000001 4.820057373046875 0.3862500000000001 Q 4.804307373046876 0.4275000000000001 4.772807373046875 0.46125000000000005 Q 4.741307373046876 0.495 4.695557373046875 0.516 Q 4.649807373046875 0.537 4.589807373046876 0.537 L 4.435307373046875 0.537 L 4.435307373046875 0.08400000000000007 Z M 5.390742187500001 0.018000000000000016 L 5.390742187500001 1.068 L 6.068742187500001 1.068 L 6.068742187500001 0.9855 L 5.527242187500001 0.9855 L 5.527242187500001 0.546 L 5.992242187500001 0.546 L 5.992242187500001 0.4770000000000001 L 5.527242187500001 0.4770000000000001 L 5.527242187500001 0.10050000000000003 L 6.068742187500001 0.10050000000000003 L 6.068742187500001 0.018000000000000016 L 5.390742187500001 0.018000000000000016 Z M 6.848690185546875 1.068 L 6.848690185546875 0.018000000000000016 L 6.985190185546875 0.018000000000000016 L 6.985190185546875 0.9855 L 7.526690185546875 0.9855 L 7.526690185546875 1.068 L 6.848690185546875 1.068 Z M 7.6616748046875 0.543 Q 7.6616748046875 0.627 7.6939248046875 0.7222500000000001 Q 7.7261748046875 0.8175000000000001 7.7951748046875 0.8985000000000001 Q 7.8641748046875 0.9795 7.9706748046875004 1.03275 Q 8.0771748046875 1.086 8.2256748046875 1.086 Q 8.3261748046875 1.086 8.4079248046875 1.06125 Q 8.4896748046875 1.0365 8.5549248046875 0.9945 Q 8.620174804687501 0.9525 8.6681748046875 0.89775 Q 8.7161748046875 0.8430000000000001 8.7469248046875 0.7822500000000001 Q 8.7776748046875 0.7215 8.7934248046875 0.66 Q 8.8091748046875 0.5985 8.8091748046875 0.543 Q 8.8091748046875 0.4590000000000001 8.7746748046875 0.36375 Q 8.7401748046875 0.26850000000000007 8.6681748046875 0.1875 Q 8.5961748046875 0.10650000000000004 8.4859248046875 0.05325000000000002 Q 8.3756748046875 0 8.2256748046875 0 Q 8.0771748046875 0 7.9706748046875004 0.05249999999999999 Q 7.8641748046875 0.1050000000000001 7.7951748046875 0.18525000000000003 Q 7.7261748046875 0.26550000000000007 7.6939248046875 0.36150000000000004 Q 7.6616748046875 0.4575 7.6616748046875 0.543 Z M 7.8086748046875005 0.543 Q 7.8086748046875005 0.43800000000000006 7.8409248046875 0.35025000000000006 Q 7.8731748046875 0.26250000000000007 7.9294248046875 0.1995 Q 7.9856748046875 0.13650000000000007 8.0621748046875 0.10125000000000006 Q 8.1386748046875 0.06600000000000006 8.2286748046875 0.06600000000000006 Q 8.3171748046875 0.06600000000000006 8.3959248046875 0.10125000000000006 Q 8.474674804687501 0.13650000000000007 8.5339248046875 0.1995 Q 8.5931748046875 0.26250000000000007 8.6276748046875 0.35025000000000006 Q 8.662174804687501 0.43800000000000006 8.662174804687501 0.543 Q 8.662174804687501 0.6480000000000001 8.6276748046875 0.7357500000000001 Q 8.5931748046875 0.8235000000000001 8.5339248046875 0.8865000000000001 Q 8.474674804687501 0.9495 8.3959248046875 0.98475 Q 8.3171748046875 1.02 8.2286748046875 1.02 Q 8.1386748046875 1.02 8.0621748046875 0.98475 Q 7.9856748046875 0.9495 7.9294248046875 0.8865000000000001 Q 7.8731748046875 0.8235000000000001 7.8409248046875 0.7357500000000001 Q 7.8086748046875005 0.6480000000000001 7.8086748046875005 0.543 Z M 10.03466015625 0.6000000000000001 L 9.73766015625 0.6000000000000001 L 9.73766015625 0.6615 L 9.90566015625 0.6615 L 9.90566015625 0.933 Q 9.83816015625 0.9765 9.767660156249999 0.9975 Q 9.69716015625 1.0185 9.60716015625 1.0185 Q 9.488660156249999 1.0185 9.40016015625 0.9825 Q 9.31166015625 0.9465000000000001 9.253160156249999 0.88275 Q 9.19466015625 0.8190000000000001 9.16541015625 0.7312500000000001 Q 9.13616015625 0.6435000000000001 9.13616015625 0.5385000000000001 Q 9.13616015625 0.43500000000000005 9.16391015625 0.3480000000000001 Q 9.19166015625 0.261 9.24716015625 0.19800000000000006 Q 9.302660156249999 0.135 9.38291015625 0.10050000000000003 Q 9.46316015625 0.06600000000000006 9.56966015625 0.06600000000000006 Q 9.64016015625 0.06600000000000006 9.70166015625 0.08100000000000007 Q 9.76316015625 0.09600000000000009 9.81116015625 0.12 Q 9.859160156249999 0.14400000000000002 9.88991015625 0.17475000000000007 Q 9.92066015625 0.20550000000000002 9.92966015625 0.237 L 10.03766015625 0.237 Q 10.02416015625 0.20400000000000007 9.99191015625 0.16275000000000006 Q 9.95966015625 0.12150000000000005 9.90416015625 0.08550000000000002 Q 9.84866015625 0.0495000000000001 9.766910156249999 0.02475000000000005 Q 9.68516015625 0 9.57416015625 0 Q 9.44666015625 0 9.33941015625 0.03600000000000003 Q 9.23216015625 0.07200000000000006 9.15416015625 0.13950000000000007 Q 9.07616015625 0.20700000000000007 9.03266015625 0.30525 Q 8.98916015625 0.4035000000000001 8.98916015625 0.528 Q 8.98916015625 0.6345000000000001 9.02291015625 0.7342500000000001 Q 9.05666015625 0.8340000000000001 9.12641015625 0.9127500000000001 Q 9.19616015625 0.9915 9.30416015625 1.03875 Q 9.41216015625 1.086 9.56216015625 1.086 Q 9.674660156249999 1.086 9.76166015625 1.06125 Q 9.84866015625 1.0365 9.90566015625 1.0065 L 9.90566015625 1.068 L 10.03466015625 1.068 L 10.03466015625 0.6000000000000001 Z" fill="#000000" fill-rule="nonzero"></path></g><g><path d=" M 1.280943237304688 2.0494874999999997 Q 1.221693237304688 2.0153624999999997 1.187568237304688 1.9542374999999998 Q 1.1534432373046881 1.8931125 1.1534432373046881 1.8158625 Q 1.1534432373046881 1.7386125 1.187568237304688 1.6774874999999998 Q 1.221693237304688 1.6163625 1.280943237304688 1.5822375 Q 1.340193237304688 1.5481124999999998 1.4129432373046882 1.5481124999999998 Q 1.486443237304688 1.5481124999999998 1.545693237304688 1.5822375 Q 1.6049432373046881 1.6163625 1.638693237304688 1.6774874999999998 Q 1.6724432373046882 1.7386125 1.6724432373046882 1.8158625 Q 1.6724432373046882 1.8931125 1.638693237304688 1.9542374999999998 Q 1.6049432373046881 2.0153624999999997 1.545693237304688 2.0494874999999997 Q 1.486443237304688 2.0836125 1.4129432373046882 2.0836125 Q 1.340193237304688 2.0836125 1.280943237304688 2.0494874999999997 Z M 1.5179432373046882 2.0108625 Q 1.5644432373046882 1.9838624999999999 1.591443237304688 1.9332375 Q 1.618443237304688 1.8826124999999998 1.618443237304688 1.8158625 Q 1.618443237304688 1.7491124999999998 1.591443237304688 1.6988625 Q 1.5644432373046882 1.6486124999999998 1.5179432373046882 1.6216125 Q 1.4714432373046882 1.5946124999999998 1.4129432373046882 1.5946124999999998 Q 1.3544432373046882 1.5946124999999998 1.3079432373046882 1.6216125 Q 1.2614432373046882 1.6486124999999998 1.234443237304688 1.6988625 Q 1.2074432373046882 1.7491124999999998 1.2074432373046882 1.8158625 Q 1.2074432373046882 1.8826124999999998 1.234443237304688 1.9332375 Q 1.2614432373046882 1.9838624999999999 1.3079432373046882 2.0108625 Q 1.3544432373046882 2.0378624999999997 1.4129432373046882 2.0378624999999997 Q 1.4714432373046882 2.0378624999999997 1.5179432373046882 2.0108625 Z M 2.096166137695313 1.8526124999999998 Q 2.1269161376953134 1.8893624999999998 2.1269161376953134 1.9381125 Q 2.1269161376953134 1.9778624999999999 2.107041137695313 2.0097375 Q 2.0871661376953132 2.0416125 2.048916137695313 2.0599875 Q 2.010666137695313 2.0783625 1.9574161376953132 2.0783625 L 1.7759161376953132 2.0783625 L 1.7759161376953132 1.5541125 L 1.9521661376953132 1.5541125 Q 2.0316661376953133 1.5541125 2.073291137695313 1.5908624999999998 Q 2.114916137695313 1.6276125 2.114916137695313 1.6861125 Q 2.114916137695313 1.7348624999999998 2.0886661376953133 1.7652375 Q 2.062416137695313 1.7956124999999998 2.021166137695313 1.8076124999999998 Q 2.0654161376953133 1.8158625 2.096166137695313 1.8526124999999998 Z M 1.8284161376953132 1.7858625 L 1.9506661376953132 1.7858625 Q 2.003916137695313 1.7858625 2.0327911376953134 1.7607374999999998 Q 2.061666137695313 1.7356124999999998 2.061666137695313 1.6913624999999999 Q 2.061666137695313 1.6478625 2.0327911376953134 1.6231125 Q 2.003916137695313 1.5983625 1.948416137695313 1.5983625 L 1.8284161376953132 1.5983625 L 1.8284161376953132 1.7858625 Z M 2.0425411376953133 2.0071125 Q 2.074416137695313 1.9801125 2.074416137695313 1.9328625 Q 2.074416137695313 1.8856125 2.0410411376953133 1.8574875 Q 2.0076661376953133 1.8293624999999998 1.9514161376953132 1.8293624999999998 L 1.8284161376953132 1.8293624999999998 L 1.8284161376953132 2.0341125 L 1.953666137695313 2.0341125 Q 2.010666137695313 2.0341125 2.0425411376953133 2.0071125 Z M 2.2990297851562507 2.0656125 Q 2.2596547851562505 2.0476125 2.2371547851562505 2.0153624999999997 Q 2.2146547851562506 1.9831124999999998 2.2131547851562505 1.9433624999999999 L 2.268654785156251 1.9433624999999999 Q 2.2724047851562506 1.9816124999999998 2.302404785156251 2.0104875 Q 2.3324047851562506 2.0393624999999997 2.3901547851562506 2.0393624999999997 Q 2.443404785156251 2.0393624999999997 2.4745297851562507 2.0119875 Q 2.505654785156251 1.9846125 2.505654785156251 1.9426124999999999 Q 2.505654785156251 1.9088625 2.4884047851562507 1.8882374999999998 Q 2.4711547851562505 1.8676125 2.445654785156251 1.8574875 Q 2.420154785156251 1.8473624999999998 2.375154785156251 1.8353625 Q 2.3226547851562507 1.8211125 2.291904785156251 1.8076124999999998 Q 2.2611547851562506 1.7941124999999998 2.2394047851562506 1.7656124999999998 Q 2.2176547851562507 1.7371124999999998 2.2176547851562507 1.6883624999999998 Q 2.2176547851562507 1.6478625 2.2386547851562506 1.6159875 Q 2.2596547851562505 1.5841124999999998 2.2979047851562506 1.5661125 Q 2.3361547851562507 1.5481124999999998 2.385654785156251 1.5481124999999998 Q 2.458404785156251 1.5481124999999998 2.503029785156251 1.5837374999999998 Q 2.5476547851562508 1.6193624999999998 2.5544047851562506 1.6756125 L 2.4974047851562506 1.6756125 Q 2.492154785156251 1.6433624999999998 2.4621547851562506 1.6182374999999998 Q 2.432154785156251 1.5931125 2.3811547851562507 1.5931125 Q 2.3339047851562507 1.5931125 2.302404785156251 1.6182374999999998 Q 2.270904785156251 1.6433624999999998 2.270904785156251 1.6868625 Q 2.270904785156251 1.7198624999999998 2.2881547851562507 1.7401125 Q 2.305404785156251 1.7603624999999998 2.3312797851562506 1.7708624999999998 Q 2.3571547851562507 1.7813625 2.4014047851562506 1.7933624999999997 Q 2.4524047851562507 1.8076124999999998 2.4839047851562506 1.8214875 Q 2.515404785156251 1.8353625 2.537154785156251 1.8638625 Q 2.5589047851562507 1.8923625 2.5589047851562507 1.9403625 Q 2.5589047851562507 1.9771124999999998 2.539404785156251 2.0101125 Q 2.5199047851562506 2.0431125 2.481654785156251 2.0633624999999998 Q 2.443404785156251 2.0836125 2.3901547851562506 2.0836125 Q 2.338404785156251 2.0836125 2.2990297851562507 2.0656125 Z M 2.720125122070313 1.5968624999999999 L 2.720125122070313 1.7926125 L 2.918875122070313 1.7926125 L 2.918875122070313 1.8361124999999998 L 2.720125122070313 1.8361124999999998 L 2.720125122070313 2.0348625 L 2.941375122070313 2.0348625 L 2.941375122070313 2.0783625 L 2.667625122070313 2.0783625 L 2.667625122070313 1.5533625 L 2.941375122070313 1.5533625 L 2.941375122070313 1.5968624999999999 L 2.720125122070313 1.5968624999999999 Z M 3.3313681640625004 2.0783625 L 3.2016181640625003 1.8593624999999998 L 3.1048681640625 1.8593624999999998 L 3.1048681640625 2.0783625 L 3.0523681640625004 2.0783625 L 3.0523681640625004 1.5541125 L 3.2098681640625 1.5541125 Q 3.2976181640625004 1.5541125 3.3429931640625004 1.5961124999999998 Q 3.3883681640625003 1.6381124999999999 3.3883681640625003 1.7063625 Q 3.3883681640625003 1.7633625 3.3557431640625004 1.8034875 Q 3.3231181640625005 1.8436124999999999 3.2593681640625003 1.8556124999999999 L 3.3943681640625005 2.0783625 L 3.3313681640625004 2.0783625 Z M 3.1048681640625 1.8166125 L 3.2106181640625002 1.8166125 Q 3.2721181640625003 1.8166125 3.3032431640625006 1.7866125 Q 3.3343681640625005 1.7566125 3.3343681640625005 1.7063625 Q 3.3343681640625005 1.6546124999999998 3.3043681640625002 1.6264874999999999 Q 3.2743681640625004 1.5983625 3.2098681640625 1.5983625 L 3.1048681640625 1.5983625 L 3.1048681640625 1.8166125 Z M 3.9155994873046875 1.5541125 L 3.7168494873046876 2.0783625 L 3.6568494873046875 2.0783625 L 3.4580994873046875 1.5541125 L 3.515099487304688 1.5541125 L 3.6868494873046878 2.0213625 L 3.8600994873046877 1.5541125 L 3.9155994873046875 1.5541125 Z M 4.054346923828125 1.5968624999999999 L 4.054346923828125 1.7926125 L 4.253096923828125 1.7926125 L 4.253096923828125 1.8361124999999998 L 4.054346923828125 1.8361124999999998 L 4.054346923828125 2.0348625 L 4.275596923828125 2.0348625 L 4.275596923828125 2.0783625 L 4.001846923828125 2.0783625 L 4.001846923828125 1.5533625 L 4.275596923828125 1.5533625 L 4.275596923828125 1.5968624999999999 L 4.054346923828125 1.5968624999999999 Z M 4.903330078125 1.9538624999999998 L 4.664830078125001 1.9538624999999998 L 4.619080078125001 2.0783625 L 4.563580078125001 2.0783625 L 4.754830078125001 1.5608624999999998 L 4.814080078125 1.5608624999999998 L 5.0045800781250005 2.0783625 L 4.949080078125001 2.0783625 L 4.903330078125 1.9538624999999998 Z M 4.8875800781250005 1.9103625 L 4.784080078125001 1.6268624999999999 L 4.680580078125001 1.9103625 L 4.8875800781250005 1.9103625 Z M 5.491313232421876 2.0783625 L 5.438813232421876 2.0783625 L 5.148563232421876 1.6373624999999998 L 5.148563232421876 2.0783625 L 5.0960632324218755 2.0783625 L 5.0960632324218755 1.5541125 L 5.148563232421876 1.5541125 L 5.438813232421876 1.9943624999999998 L 5.438813232421876 1.5541125 L 5.491313232421876 1.5541125 L 5.491313232421876 2.0783625 Z M 5.922543823242188 1.5856124999999999 Q 5.984793823242189 1.6171125 6.017793823242188 1.6763624999999998 Q 6.050793823242189 1.7356124999999998 6.050793823242189 1.8173624999999998 Q 6.050793823242189 1.8983625 6.017793823242188 1.9572375 Q 5.984793823242189 2.0161124999999998 5.922543823242188 2.0472375 Q 5.860293823242189 2.0783625 5.773293823242189 2.0783625 L 5.618043823242188 2.0783625 L 5.618043823242188 1.5541125 L 5.773293823242189 1.5541125 Q 5.860293823242189 1.5541125 5.922543823242188 1.5856124999999999 Z M 5.940168823242189 1.9774874999999998 Q 5.9975438232421885 1.9201124999999999 5.9975438232421885 1.8173624999999998 Q 5.9975438232421885 1.7138624999999998 5.940168823242189 1.6557374999999999 Q 5.882793823242189 1.5976124999999999 5.773293823242189 1.5976124999999999 L 5.6705438232421885 1.5976124999999999 L 5.6705438232421885 2.0348625 L 5.773293823242189 2.0348625 Q 5.882793823242189 2.0348625 5.940168823242189 1.9774874999999998 Z M 6.64702917480469 2.0783625 L 6.517279174804689 1.8593624999999998 L 6.420529174804689 1.8593624999999998 L 6.420529174804689 2.0783625 L 6.368029174804689 2.0783625 L 6.368029174804689 1.5541125 L 6.5255291748046895 1.5541125 Q 6.613279174804689 1.5541125 6.658654174804689 1.5961124999999998 Q 6.704029174804689 1.6381124999999999 6.704029174804689 1.7063625 Q 6.704029174804689 1.7633625 6.671404174804689 1.8034875 Q 6.638779174804689 1.8436124999999999 6.57502917480469 1.8556124999999999 L 6.710029174804689 2.0783625 L 6.64702917480469 2.0783625 Z M 6.420529174804689 1.8166125 L 6.5262791748046896 1.8166125 Q 6.587779174804689 1.8166125 6.6189041748046895 1.7866125 Q 6.650029174804689 1.7566125 6.650029174804689 1.7063625 Q 6.650029174804689 1.6546124999999998 6.6200291748046896 1.6264874999999999 Q 6.590029174804689 1.5983625 6.5255291748046895 1.5983625 L 6.420529174804689 1.5983625 L 6.420529174804689 1.8166125 Z M 6.868260498046877 1.5968624999999999 L 6.868260498046877 1.7926125 L 7.067010498046877 1.7926125 L 7.067010498046877 1.8361124999999998 L 6.868260498046877 1.8361124999999998 L 6.868260498046877 2.0348625 L 7.089510498046877 2.0348625 L 7.089510498046877 2.0783625 L 6.815760498046877 2.0783625 L 6.815760498046877 1.5533625 L 7.089510498046877 1.5533625 L 7.089510498046877 1.5968624999999999 L 6.868260498046877 1.5968624999999999 Z M 7.491503540039065 1.8136124999999998 Q 7.447253540039065 1.8548624999999999 7.358753540039065 1.8548624999999999 L 7.253003540039065 1.8548624999999999 L 7.253003540039065 2.0783625 L 7.2005035400390645 2.0783625 L 7.2005035400390645 1.5541125 L 7.358753540039065 1.5541125 Q 7.446503540039065 1.5541125 7.491128540039065 1.5953624999999998 Q 7.535753540039065 1.6366124999999998 7.535753540039065 1.7048625 Q 7.535753540039065 1.7723624999999998 7.491503540039065 1.8136124999999998 Z M 7.4817535400390645 1.7048625 Q 7.4817535400390645 1.6523625 7.452503540039065 1.6253624999999998 Q 7.423253540039065 1.5983625 7.358753540039065 1.5983625 L 7.253003540039065 1.5983625 L 7.253003540039065 1.8098625 L 7.358753540039065 1.8098625 Q 7.4817535400390645 1.8098625 7.4817535400390645 1.7048625 Z M 7.734477172851565 2.0494874999999997 Q 7.6752271728515655 2.0153624999999997 7.641102172851565 1.9542374999999998 Q 7.606977172851565 1.8931125 7.606977172851565 1.8158625 Q 7.606977172851565 1.7386125 7.641102172851565 1.6774874999999998 Q 7.6752271728515655 1.6163625 7.734477172851565 1.5822375 Q 7.793727172851565 1.5481124999999998 7.866477172851565 1.5481124999999998 Q 7.939977172851565 1.5481124999999998 7.999227172851565 1.5822375 Q 8.058477172851566 1.6163625 8.092227172851565 1.6774874999999998 Q 8.125977172851565 1.7386125 8.125977172851565 1.8158625 Q 8.125977172851565 1.8931125 8.092227172851565 1.9542374999999998 Q 8.058477172851566 2.0153624999999997 7.999227172851565 2.0494874999999997 Q 7.939977172851565 2.0836125 7.866477172851565 2.0836125 Q 7.793727172851565 2.0836125 7.734477172851565 2.0494874999999997 Z M 7.971477172851565 2.0108625 Q 8.017977172851564 1.9838624999999999 8.044977172851565 1.9332375 Q 8.071977172851565 1.8826124999999998 8.071977172851565 1.8158625 Q 8.071977172851565 1.7491124999999998 8.044977172851565 1.6988625 Q 8.017977172851564 1.6486124999999998 7.971477172851565 1.6216125 Q 7.924977172851565 1.5946124999999998 7.866477172851565 1.5946124999999998 Q 7.807977172851565 1.5946124999999998 7.761477172851565 1.6216125 Q 7.714977172851565 1.6486124999999998 7.687977172851565 1.6988625 Q 7.660977172851565 1.7491124999999998 7.660977172851565 1.8158625 Q 7.660977172851565 1.8826124999999998 7.687977172851565 1.9332375 Q 7.714977172851565 1.9838624999999999 7.761477172851565 2.0108625 Q 7.807977172851565 2.0378624999999997 7.866477172851565 2.0378624999999997 Q 7.924977172851565 2.0378624999999997 7.971477172851565 2.0108625 Z M 8.50845007324219 2.0783625 L 8.378700073242191 1.8593624999999998 L 8.281950073242191 1.8593624999999998 L 8.281950073242191 2.0783625 L 8.229450073242191 2.0783625 L 8.229450073242191 1.5541125 L 8.38695007324219 1.5541125 Q 8.47470007324219 1.5541125 8.520075073242191 1.5961124999999998 Q 8.565450073242191 1.6381124999999999 8.565450073242191 1.7063625 Q 8.565450073242191 1.7633625 8.53282507324219 1.8034875 Q 8.50020007324219 1.8436124999999999 8.43645007324219 1.8556124999999999 L 8.57145007324219 2.0783625 L 8.50845007324219 2.0783625 Z M 8.281950073242191 1.8166125 L 8.38770007324219 1.8166125 Q 8.44920007324219 1.8166125 8.48032507324219 1.7866125 Q 8.511450073242191 1.7566125 8.511450073242191 1.7063625 Q 8.511450073242191 1.6546124999999998 8.48145007324219 1.6264874999999999 Q 8.45145007324219 1.5983625 8.38695007324219 1.5983625 L 8.281950073242191 1.5983625 L 8.281950073242191 1.8166125 Z M 8.983931396484378 1.5541125 L 8.983931396484378 1.5976124999999999 L 8.838431396484378 1.5976124999999999 L 8.838431396484378 2.0783625 L 8.785931396484377 2.0783625 L 8.785931396484377 1.5976124999999999 L 8.639681396484379 1.5976124999999999 L 8.639681396484379 1.5541125 L 8.983931396484378 1.5541125 Z" fill="#3361e1" fill-rule="nonzero"></path></g><g clip-path="url(&quot;#SvgjsClipPath1019&quot;)"><g clip-path="url(&quot;#SvgjsClipPath1008&quot;)"><path d=" M 5.062296752929687 -2.6379963549477563 C 5.293115199186097 -2.638371169397735 5.5168782148962245 -2.558455806644117 5.695237854203231 -2.4119459616357766 L 5.764861375343321 -2.496940909521081 L 5.904108417623503 -2.6673829060783136 L 5.938920178193546 -2.7098803800209663 L 5.938920178193546 -2.7098803800209663 C 6.261732142127297 -2.4469139398895954 6.448889712724907 -2.0525046850809723 6.448437764718749 -1.6361410117890614 C 6.4486273077324245 -1.149852269161752 6.193810872081414 -0.6990759887203408 5.777068096582392 -0.4484722453280523 L 5.635108449582245 -0.6840167551590022 C 5.969311733626276 -0.8848406826556787 6.1736933597113275 -1.24624093835267 6.173560486451378 -1.6361410117890614 C 6.174056057651088 -1.845790040155736 6.114774751672096 -2.051235836008866 6.002666389107523 -2.2283930422664526 L 5.989103365508804 -2.219803127320594 L 5.9099857278496115 -2.170072040791958 C 6.010628963756715 -2.010187366327378 6.063924258188015 -1.8250645936115941 6.063699995301759 -1.6361410117890614 C 6.063941836315367 -1.2204893706973556 5.80739209143722 -0.8478985420559795 5.419004273575958 -0.6998402826908263 L 5.442061413693814 -0.6388066764966056 L 5.4904361978625795 -0.5108621538820248 L 5.4904361978625795 -0.5108621538820248 L 5.555086610349803 -0.3399680565381682 L 5.555086610349803 -0.3399680565381682 C 5.398105299320074 -0.2803073624679078 5.231589101499516 -0.24966960757912116 5.0636530552895636 -0.24954789921337683 C 4.307286254101811 -0.24892858265802875 3.6899659065885593 -0.8545824003062519 3.6761557411406303 -1.6108233677381196 L 3.951033019407993 -1.615796476390983 C 3.9628511175373653 -1.010479789463398 4.456864723884738 -0.525912334254488 5.062296752929695 -0.5257814798406155 L 5.10479422687234 -0.5257814798406155 L 5.10479422687234 -0.5420571081590779 L 5.101177420579345 -0.6356419709902381 L 5.063200954502934 -0.6356419709902381 C 4.510847215299689 -0.6361404854997557 4.063200428213628 -1.0837872725858202 4.062701913704113 -1.6361410117890616 C 4.062765949418324 -1.6901864373486524 4.066998106265647 -1.7441464371520812 4.075360735729569 -1.7975409926137356 L 4.011162424028979 -1.807939310706166 L 3.875532188041791 -1.8296401484641158 L 3.875532188041791 -1.8296401484641158 L 3.6946918733922067 -1.8590266995946734 L 3.6946918733922067 -1.8590266995946734 C 3.804329107509066 -2.529653292900585 4.383671470951488 -3.0221038714064843 5.063200954502934 -3.022282023578122 C 5.298146010342956 -3.0227092507491884 5.529283374361148 -2.962940397023272 5.734570622639515 -2.8486753215145213 L 5.601200890585446 -2.608157703030575 C 5.436696775097207 -2.699743694285602 5.251481386439638 -2.747681794879327 5.063200954502934 -2.7474047453107544 C 4.650363128428975 -2.7475814416781765 4.2714823841668395 -2.5187904040125297 4.079429642809196 -2.1533443116868716 L 4.09344476719454 -2.146110699100888 L 4.176179211146726 -2.100900620438492 C 4.349580675120412 -2.429587705462288 4.6906742730507665 -2.6352880282957973 5.062296752929683 -2.6352837502280124 Z M 5.062296752929687 -2.378038402638979 C 4.652734705491908 -2.377788821820289 4.320851386821039 -2.0457031352721837 4.320851462866392 -1.6361410117890607 C 4.320851462866392 -1.4394974945504115 4.3989677959312825 -1.2509079838223018 4.538015760447105 -1.111860019306479 C 4.6770637249629265 -0.9728120547906562 4.865653235691037 -0.8946957217257667 5.062296752929687 -0.8946957217257667 C 5.258940270168333 -0.8946957217257667 5.447529780896447 -0.9728120547906562 5.58657774541227 -1.111860019306479 C 5.725625709928092 -1.2509079838223016 5.803742042992983 -1.4394974945504115 5.803742042992983 -1.6361410117890611 C 5.804102079955791 -1.833061010836889 5.726159149925099 -2.0220455622553457 5.587085156235018 -2.161458760808085 C 5.44801116254494 -2.300871959360824 5.259217044749631 -2.3792750339338054 5.062296752929695 -2.3793947049988513 Z" fill="#3361e1" transform="matrix(1,0,0,1,0,0)" fill-rule="evenodd"></path></g><g clip-path="url(&quot;#SvgjsClipPath1008&quot;)"><path d=" M 5.062748853716313 -1.0479578883912892 C 5.38734373450691 -1.04795788839129 5.650479876327461 -1.3110940302118437 5.650479876327461 -1.6356889110024373 C 5.650479876327461 -1.960283791793031 5.38734373450691 -2.2234199336135845 5.062748853716313 -2.2234199336135854 C 4.738153972925716 -2.2234199336135845 4.475017831105168 -1.960283791793031 4.475017831105168 -1.6356889110024373 C 4.475017831105168 -1.3110940302118437 4.738153972925716 -1.04795788839129 5.062748853716313 -1.0479578883912892 Z" fill="#000000" transform="matrix(1,0,0,1,0,0)" fill-rule="evenodd"></path></g><g clip-path="url(&quot;#SvgjsClipPath1008&quot;)"><path d=" M 5.062748853716313 -1.614892274817735 C 5.148714732270557 -1.6151414523233003 5.218271885442533 -1.6849008065219357 5.218271524314957 -1.7708670462030012 C 5.218271885442471 -1.8568332858841798 5.148714732270447 -1.9265926400827649 5.062748853716203 -1.9268418175882678 C 4.976709430040147 -1.9265935060135686 4.907022393905741 -1.8569064698791622 4.906774082331047 -1.7708670462030012 C 4.907022393905741 -1.6848276225268477 4.9767094300401435 -1.6151405863924382 5.062748853716305 -1.614892274817735 Z" fill="#51a8db" transform="matrix(1,0,0,1,0,0)" fill-rule="evenodd"></path></g><g clip-path="url(&quot;#SvgjsClipPath1008&quot;)"><path d=" M 5.062296752929687 -1.8965510648844621 L 5.062296752929687 -1.8965510648844621 C 5.110560288212161 -1.896551706077127 5.149755524429272 -1.8575585071601075 5.150004305534735 -1.8092956130660378 L 5.150004305534735 -1.4331477585949033 C 5.149755524429272 -1.3848848645008305 5.110560288212157 -1.3458916655838122 5.062296752929683 -1.345892306776479 L 5.062296752929687 -1.345892306776479 C 5.014209679698716 -1.346139545979453 4.975288540314239 -1.3850606853639327 4.975041301111264 -1.4331477585949033 L 4.975041301111264 -1.8092956130660378 C 4.975288540314239 -1.857382686297008 5.014209679698716 -1.896303825681488 5.062296752929687 -1.896551064884462 Z" fill="#51a8db" transform="matrix(1,0,0,1,0,0)" fill-rule="evenodd"></path></g></g></g><defs><clipPath id="SvgjsClipPath1019"><path d=" M 3.6761557411406263 -3.0227341243647463 h 2.7722820235781223 v 2.7727341243647463 h -2.7722820235781223 Z"></path></clipPath><clipPath id="SvgjsClipPath1008"><path d=" M 3.6761557411406263 -3.0227341243647463 L 6.448437764718749 -3.0227341243647463 L 6.448437764718749 -0.25 L 3.6761557411406263 -0.25 Z"></path></clipPath></defs></svg>